# xmcd
#
# Track frame offsets: 
#        187
#        24885
#        51015
#        76632
#        91517
#        125200
#        151707
#        171125
#        210087
#        230585
#
# Disc length: 3515 seconds
#
# Revision: 2
# Processed by: cddbd v1.5.2PL0 Copyright (c) Steve Scherf et al.
# Submitted via: ExactAudioCopy v0.99pb5
#
DISCID=620db90a
DTITLE=Larry Coryell and Steve Khan - Two For The Road
DYEAR=1977
DGENRE=Jazz
TTITLE0=Spain
TTITLE1=Bouquet
TTITLE2=Son Of Stiff Neck
TTITLE3=Ju Ju
TTITLE4=St. Gallen
TTITLE5=Footprints
TTITLE6=General Mojo's Well Laid Plan
TTITLE7=Toronto Under The Sign Of Capricorn
TTITLE8=For Philip And Django
TTITLE9=Rodrigo Reflections
EXTD=
EXTT0=
EXTT1=
EXTT2=
EXTT3=
EXTT4=
EXTT5=
EXTT6=
EXTT7=
EXTT8=
EXTT9=
PLAYORDER=
